<mxfile host="65bd71144e">
    <diagram id="atoUnrEFBCs-9rd982PQ" name="Page-1">
        <mxGraphModel dx="1216" dy="510" grid="1" gridSize="10" guides="1" tooltips="1" connect="1" arrows="1" fold="1" page="1" pageScale="1" pageWidth="850" pageHeight="1100" math="0" shadow="0">
            <root>
                <mxCell id="0"/>
                <mxCell id="1" parent="0"/>
                <mxCell id="2" value="BaseGame" style="swimlane;fontStyle=0;align=center;verticalAlign=top;childLayout=stackLayout;horizontal=1;startSize=30;horizontalStack=0;resizeParent=1;resizeParentMax=0;resizeLast=0;collapsible=0;marginBottom=0;html=1;" parent="1" vertex="1">
                    <mxGeometry x="70" y="80" width="225" height="86" as="geometry"/>
                </mxCell>
                <mxCell id="3" value="" style="text;html=1;strokeColor=none;fillColor=none;align=left;verticalAlign=middle;spacingLeft=4;spacingRight=4;overflow=hidden;rotatable=0;points=[[0,0.5],[1,0.5]];portConstraint=eastwest;fontStyle=4;" parent="2" vertex="1">
                    <mxGeometry y="26" width="225" height="26" as="geometry"/>
                </mxCell>
                <mxCell id="4" style="line;strokeWidth=1;fillColor=none;align=left;verticalAlign=middle;spacingTop=-1;spacingLeft=3;spacingRight=3;rotatable=0;labelPosition=right;points=[];portConstraint=eastwest;" parent="2" vertex="1">
                    <mxGeometry y="52" width="225" height="8" as="geometry"/>
                </mxCell>
                <mxCell id="5" value="+ main(String[]): void" style="text;html=1;strokeColor=none;fillColor=none;align=left;verticalAlign=middle;spacingLeft=4;spacingRight=4;overflow=hidden;rotatable=0;points=[[0,0.5],[1,0.5]];portConstraint=eastwest;fontStyle=4;" parent="2" vertex="1">
                    <mxGeometry y="60" width="225" height="26" as="geometry"/>
                </mxCell>
                <mxCell id="6" value="CollisionCheck" style="swimlane;fontStyle=0;align=center;verticalAlign=top;childLayout=stackLayout;horizontal=1;startSize=30;horizontalStack=0;resizeParent=1;resizeParentMax=0;resizeLast=0;collapsible=0;marginBottom=0;html=1;" parent="1" vertex="1">
                    <mxGeometry x="313" y="310" width="225" height="116" as="geometry"/>
                </mxCell>
                <mxCell id="7" value="gp : GamePanel" style="text;html=1;strokeColor=none;fillColor=none;align=left;verticalAlign=middle;spacingLeft=4;spacingRight=4;overflow=hidden;rotatable=0;points=[[0,0.5],[1,0.5]];portConstraint=eastwest;" parent="6" vertex="1">
                    <mxGeometry y="30" width="225" height="26" as="geometry"/>
                </mxCell>
                <mxCell id="8" style="line;strokeWidth=1;fillColor=none;align=left;verticalAlign=middle;spacingTop=-1;spacingLeft=3;spacingRight=3;rotatable=0;labelPosition=right;points=[];portConstraint=eastwest;" parent="6" vertex="1">
                    <mxGeometry y="56" width="225" height="8" as="geometry"/>
                </mxCell>
                <mxCell id="9" value="+ CollisionCheck(GamePanle)" style="text;html=1;strokeColor=none;fillColor=none;align=left;verticalAlign=middle;spacingLeft=4;spacingRight=4;overflow=hidden;rotatable=0;points=[[0,0.5],[1,0.5]];portConstraint=eastwest;" parent="6" vertex="1">
                    <mxGeometry y="64" width="225" height="26" as="geometry"/>
                </mxCell>
                <mxCell id="10" value="+ checkTile(Entity): void" style="text;html=1;strokeColor=none;fillColor=none;align=left;verticalAlign=middle;spacingLeft=4;spacingRight=4;overflow=hidden;rotatable=0;points=[[0,0.5],[1,0.5]];portConstraint=eastwest;" parent="6" vertex="1">
                    <mxGeometry y="90" width="225" height="26" as="geometry"/>
                </mxCell>
                <mxCell id="11" value="GamePanle" style="swimlane;fontStyle=0;align=center;verticalAlign=top;childLayout=stackLayout;horizontal=1;startSize=30;horizontalStack=0;resizeParent=1;resizeParentMax=0;resizeLast=0;collapsible=0;marginBottom=0;html=1;" parent="1" vertex="1">
                    <mxGeometry x="563" y="60" width="287" height="800" as="geometry"/>
                </mxCell>
                <mxCell id="23" value="&lt;div&gt;&lt;div&gt;- OriginalTitlesize : int&lt;/div&gt;&lt;div&gt;- scale : int&lt;/div&gt;&lt;div&gt;+ titlesize : int&lt;/div&gt;&lt;div&gt;+ maxCol : int&lt;/div&gt;&lt;div&gt;+ maxRow : int&lt;/div&gt;&lt;div&gt;+ Widthscreen : int&lt;/div&gt;&lt;div&gt;+ Hightscreen : int&lt;/div&gt;&lt;div&gt;+ maxWorldCol : int&lt;/div&gt;&lt;div&gt;+ maxWorldRow : int&lt;/div&gt;&lt;div&gt;+ WorldWidth : int&lt;/div&gt;&lt;div&gt;+ WorldHeight : int&lt;/div&gt;&lt;div&gt;- keyH : KeyEventHandler&lt;/div&gt;&lt;div&gt;- FPS : int&lt;/div&gt;&lt;div&gt;- gameThread : Thread&lt;/div&gt;&lt;div&gt;+ MenuOpen : boolean&lt;/div&gt;&lt;div&gt;+ gameOver : boolean&lt;/div&gt;&lt;div&gt;+ score : int&lt;/div&gt;&lt;div&gt;- gameStarted : boolean&lt;/div&gt;&lt;div&gt;+ level : int&lt;/div&gt;&lt;div&gt;+ totalScore : int&lt;/div&gt;&lt;div&gt;+ player1 : Player&lt;/div&gt;&lt;div&gt;+ enemies : ArrayList&amp;lt;Enemy&amp;gt;&lt;/div&gt;&lt;div&gt;+ bosses : ArrayList&amp;lt;Boss&amp;gt;&lt;/div&gt;&lt;div&gt;+ bullets : ArrayList&amp;lt;Bullet&amp;gt;&lt;/div&gt;&lt;div&gt;+ enemyBullets : ArrayList&amp;lt;EnemyBullet&amp;gt;&lt;/div&gt;&lt;div&gt;+ collisionChecker : CollisionCheck&lt;/div&gt;&lt;div&gt;+ tileM : Tilemanager&lt;/div&gt;&lt;div&gt;- restartBtn : JButton&lt;/div&gt;&lt;div&gt;- nextLevelBtn : JButton&lt;/div&gt;&lt;div&gt;- startBtn : JButton&lt;/div&gt;&lt;div&gt;- rng : Random&lt;/div&gt;&lt;/div&gt;" style="text;html=1;align=left;verticalAlign=middle;resizable=0;points=[];autosize=1;strokeColor=none;fillColor=none;" vertex="1" parent="11">
                    <mxGeometry y="30" width="287" height="460" as="geometry"/>
                </mxCell>
                <mxCell id="12" style="line;strokeWidth=1;fillColor=none;align=left;verticalAlign=middle;spacingTop=-1;spacingLeft=3;spacingRight=3;rotatable=0;labelPosition=right;points=[];portConstraint=eastwest;" parent="11" vertex="1">
                    <mxGeometry y="490" width="287" height="150" as="geometry"/>
                </mxCell>
                <mxCell id="24" value="&lt;div&gt;&lt;font color=&quot;#000000&quot;&gt;+ startGameThread() : void&lt;/font&gt;&lt;/div&gt;&lt;div&gt;&lt;font color=&quot;#000000&quot;&gt;+ run() : void&lt;/font&gt;&lt;/div&gt;&lt;div&gt;&lt;font color=&quot;#000000&quot;&gt;+ update() : void&lt;/font&gt;&lt;/div&gt;&lt;div&gt;&lt;font color=&quot;#000000&quot;&gt;- setupLevel() : void&lt;/font&gt;&lt;/div&gt;&lt;div&gt;&lt;font color=&quot;#000000&quot;&gt;- nextLevel() : void&lt;/font&gt;&lt;/div&gt;&lt;div&gt;&lt;font color=&quot;#000000&quot;&gt;- isLevelCleared() : boolean&lt;/font&gt;&lt;/div&gt;&lt;div&gt;&lt;font color=&quot;#000000&quot;&gt;- spawnEnemyRandom() : void&lt;/font&gt;&lt;/div&gt;&lt;div&gt;&lt;font color=&quot;#000000&quot;&gt;- spawnBossRandom() : void&lt;/font&gt;&lt;/div&gt;&lt;div&gt;&lt;font color=&quot;#000000&quot;&gt;- restartGame() : void&lt;/font&gt;&lt;/div&gt;&lt;div&gt;&lt;font color=&quot;#000000&quot;&gt;+ paintComponent(g : Graphics) : void&lt;/font&gt;&lt;/div&gt;" style="text;html=1;align=left;verticalAlign=middle;resizable=0;points=[];autosize=1;strokeColor=none;fillColor=none;" vertex="1" parent="11">
                    <mxGeometry y="640" width="287" height="160" as="geometry"/>
                </mxCell>
                <mxCell id="13" value="KeyEventHandler" style="swimlane;fontStyle=0;align=center;verticalAlign=top;childLayout=stackLayout;horizontal=1;startSize=30;horizontalStack=0;resizeParent=1;resizeParentMax=0;resizeLast=0;collapsible=0;marginBottom=0;html=1;" parent="1" vertex="1">
                    <mxGeometry x="60" y="220" width="225" height="330" as="geometry"/>
                </mxCell>
                <mxCell id="14" value="+ upPressed : int" style="text;html=1;strokeColor=none;fillColor=none;align=left;verticalAlign=middle;spacingLeft=4;spacingRight=4;overflow=hidden;rotatable=0;points=[[0,0.5],[1,0.5]];portConstraint=eastwest;" parent="13" vertex="1">
                    <mxGeometry y="30" width="225" height="26" as="geometry"/>
                </mxCell>
                <mxCell id="15" value="+ upPressed : int" style="text;html=1;strokeColor=none;fillColor=none;align=left;verticalAlign=middle;spacingLeft=4;spacingRight=4;overflow=hidden;rotatable=0;points=[[0,0.5],[1,0.5]];portConstraint=eastwest;" parent="13" vertex="1">
                    <mxGeometry y="56" width="225" height="26" as="geometry"/>
                </mxCell>
                <mxCell id="16" value="+ upPressed : int" style="text;html=1;strokeColor=none;fillColor=none;align=left;verticalAlign=middle;spacingLeft=4;spacingRight=4;overflow=hidden;rotatable=0;points=[[0,0.5],[1,0.5]];portConstraint=eastwest;" parent="13" vertex="1">
                    <mxGeometry y="82" width="225" height="26" as="geometry"/>
                </mxCell>
                <mxCell id="17" value="+ upPressed : int" style="text;html=1;strokeColor=none;fillColor=none;align=left;verticalAlign=middle;spacingLeft=4;spacingRight=4;overflow=hidden;rotatable=0;points=[[0,0.5],[1,0.5]];portConstraint=eastwest;" parent="13" vertex="1">
                    <mxGeometry y="108" width="225" height="26" as="geometry"/>
                </mxCell>
                <mxCell id="18" value="+ spacePressed : int" style="text;html=1;strokeColor=none;fillColor=none;align=left;verticalAlign=middle;spacingLeft=4;spacingRight=4;overflow=hidden;rotatable=0;points=[[0,0.5],[1,0.5]];portConstraint=eastwest;" parent="13" vertex="1">
                    <mxGeometry y="134" width="225" height="26" as="geometry"/>
                </mxCell>
                <mxCell id="19" value="+ tabPressed : int" style="text;html=1;strokeColor=none;fillColor=none;align=left;verticalAlign=middle;spacingLeft=4;spacingRight=4;overflow=hidden;rotatable=0;points=[[0,0.5],[1,0.5]];portConstraint=eastwest;" parent="13" vertex="1">
                    <mxGeometry y="160" width="225" height="26" as="geometry"/>
                </mxCell>
                <mxCell id="20" value="+ shootPressed : int" style="text;html=1;strokeColor=none;fillColor=none;align=left;verticalAlign=middle;spacingLeft=4;spacingRight=4;overflow=hidden;rotatable=0;points=[[0,0.5],[1,0.5]];portConstraint=eastwest;" parent="13" vertex="1">
                    <mxGeometry y="186" width="225" height="26" as="geometry"/>
                </mxCell>
                <mxCell id="21" style="line;strokeWidth=1;fillColor=none;align=left;verticalAlign=middle;spacingTop=-1;spacingLeft=3;spacingRight=3;rotatable=0;labelPosition=right;points=[];portConstraint=eastwest;" parent="13" vertex="1">
                    <mxGeometry y="212" width="225" height="58" as="geometry"/>
                </mxCell>
                <mxCell id="26" value="&lt;div&gt;&lt;font color=&quot;#000000&quot;&gt;+ keyTyped(e : KeyEvent) : void&lt;/font&gt;&lt;/div&gt;&lt;div&gt;&lt;font color=&quot;#000000&quot;&gt;+ keyPressed(e : KeyEvent) : void&lt;/font&gt;&lt;/div&gt;&lt;div&gt;&lt;font color=&quot;#000000&quot;&gt;+ keyReleased(e : KeyEvent) : void&lt;/font&gt;&lt;/div&gt;" style="text;html=1;align=left;verticalAlign=middle;resizable=0;points=[];autosize=1;strokeColor=none;fillColor=none;" vertex="1" parent="13">
                    <mxGeometry y="270" width="225" height="60" as="geometry"/>
                </mxCell>
            </root>
        </mxGraphModel>
    </diagram>
</mxfile>